<svg xmlns="http://www.w3.org/2000/svg" width="43" height="47" viewBox="0 0 43 47">
    <g fill="#846C5A" fill-rule="evenodd">
        <path d="M13.508 18.127l-12.316-6.94L21.047 0l6.507 3.638-4.4 2.55-1.724-.972-10.472 5.919 2.87 1.618 10.408-5.8h.002l4.618-2.587 12.202 6.822-20.011 11.187-6.14-3.46 4.898-2.843 1.47.833 10.545-5.877-2.944-1.66-10.39 5.872h-.002l-4.976 2.887zM0 12.952l20.117 11.376v8.165l-1.754.946 1.754 1.517v11.847L0 35.541V12.952zm4.706 8.038v3.236l10.486 5.978v-3.32L4.706 20.99zm0 8.453v3.236l10.486 5.979v-3.32L4.706 29.443zM42.891 30.583V35.2L22.663 46.565V24.039l20.228-11.281v2.825l.035-.033v5.592l-4.692 2.643V20.57l-10.645 6.037v11.64l10.645-5.972V29.36l4.692-2.643v3.832l-.035.033z"/>
    </g>
</svg>
